<?xml version="1.0" encoding="UTF-8" standalone="no"?>
<svg width="148px" height="123px" viewBox="0 0 148 123" version="1.1" xmlns="http://www.w3.org/2000/svg" xmlns:xlink="http://www.w3.org/1999/xlink">
    <!-- Generator: Sketch 41.2 (35397) - http://www.bohemiancoding.com/sketch -->
    <title>stacked</title>
    <desc>Created with Sketch.</desc>
    <defs>
        <text id="text-1" font-family="BermudaLPStd-Solid, Bermuda LP Std" font-size="48" font-weight="normal" fill="#FFFFFF">
            <tspan x="0" y="33">Kids</tspan>
        </text>
        <filter x="-50%" y="-50%" width="200%" height="200%" filterUnits="objectBoundingBox" id="filter-2">
            <feOffset dx="0" dy="2" in="SourceAlpha" result="shadowOffsetOuter1"></feOffset>
            <feGaussianBlur stdDeviation="2" in="shadowOffsetOuter1" result="shadowBlurOuter1"></feGaussianBlur>
            <feColorMatrix values="0 0 0 0 0   0 0 0 0 0   0 0 0 0 0  0 0 0 0.5 0" type="matrix" in="shadowBlurOuter1"></feColorMatrix>
        </filter>
    </defs>
    <g id="Page-1" stroke="none" stroke-width="1" fill="none" fill-rule="evenodd">
        <g id="logo" transform="translate(-671.000000, -387.000000)">
            <g id="stacked" transform="translate(671.000000, 387.000000)">
                <g id="square-orange" transform="translate(67.000000, 8.000000)" fill="#E0B84E" fill-opacity="0.930000007">
                    <rect x="0" y="0" width="75" height="38" rx="8"></rect>
                </g>
                <g id="square-green" transform="translate(1.000000, 37.000000)" fill="#6AB78A">
                    <rect x="0" y="0" width="70" height="33" rx="8"></rect>
                </g>
                <g id="square-red" transform="translate(82.000000, 37.000000)" fill="#DF764E" fill-opacity="0.939999998">
                    <rect id="square-lime" x="0" y="0" width="82" height="33" rx="8"></rect>
                </g>
                <g id="square-aqua" fill="#6FC4D9">
                    <path d="M1.01461059e-14,8.00079513 C1.21729562e-14,3.582078 3.57965805,0 7.99578523,0 L62.0042148,0 C66.420165,0 70,3.57494774 70,8.00079513 L70,29.9992049 C70,34.417922 66.420342,38 62.0042148,38 L7.99578523,38 C3.57983498,38 -1.97460979e-15,34.4250523 5.55111512e-17,29.9992049 L1.01461059e-14,8.00079513 Z"></path>
                </g>
                <g id="Kids" transform="translate(2.000000, 22.000000)" fill="#FFFFFF" fill-opacity="1">
                    <g>
                        <use filter="url(#filter-2)" xlink:href="#text-1"></use>
                        <use xlink:href="#text-1"></use>
                    </g>
                </g>
                <g id="fm" transform="translate(83.000000, 60.000000)" letter-spacing="4.5999999" font-size="46" font-family="AnkeCalligraphicFG, Anke Calligraphic FG" fill="#589E08" font-weight="normal">
                    <text>
                        <tspan x="0" y="48">f</tspan>
                        <tspan x="17.8019999" y="48">m</tspan>
                    </text>
                </g>
            </g>
        </g>
    </g>
</svg>